name Walk4.mot
datacolumns 19
datarows 12
range 3.81600000 3.82700000
endheader

                time	   L_ground_force_vx	   L_ground_force_vy	   L_ground_force_vz	   L_ground_force_px	   L_ground_force_py	   L_ground_force_pz	   R_ground_force_vx	   R_ground_force_vy	   R_ground_force_vz	   R_ground_force_px	   R_ground_force_py	   R_ground_force_pz	   L_ground_torque_x	   L_ground_torque_y	   L_ground_torque_z	   R_ground_torque_x	   R_ground_torque_y	   R_ground_torque_z	
          3.81600000	         29.19272301	       1003.80691161	         69.82271255	         -0.21561082	          0.00000000	         -0.04138658	          0.00000000	          0.00000000	          0.00000000	          0.00000000	          0.00000000	          0.00000000	          0.00000000	          0.50016857	          0.00000000	          0.00000000	          0.00000000	          0.00000000	
          3.81700000	         29.68106640	       1003.60717607	         70.10931436	         -0.21519963	          0.00000000	         -0.04156244	          0.00000000	          0.00000000	          0.00000000	          0.00000000	          0.00000000	          0.00000000	          0.00000000	          0.57959631	          0.00000000	          0.00000000	          0.00000000	          0.00000000	
          3.81800000	         30.03871807	       1003.41852165	         70.47083090	         -0.21483259	          0.00000000	         -0.04170950	          0.00000000	          0.00000000	          0.00000000	          0.00000000	          0.00000000	          0.00000000	          0.00000000	          0.66184397	          0.00000000	          0.00000000	          0.00000000	          0.00000000	
          3.81900000	         30.30103961	       1003.22998666	         70.93202654	         -0.21450420	          0.00000000	         -0.04180183	          0.00000000	          0.00000000	          0.00000000	          0.00000000	          0.00000000	          0.00000000	          0.00000000	          0.73475498	          0.00000000	          0.00000000	          0.00000000	          0.00000000	
          3.82000000	         30.54778604	       1003.04321011	         71.46304627	         -0.21417575	          0.00000000	         -0.04184547	          0.00000000	          0.00000000	          0.00000000	          0.00000000	          0.00000000	          0.00000000	          0.00000000	          0.79193731	          0.00000000	          0.00000000	          0.00000000	          0.00000000	
          3.82100000	         30.86386264	       1002.87242193	         71.99983235	         -0.21379964	          0.00000000	         -0.04186596	          0.00000000	          0.00000000	          0.00000000	          0.00000000	          0.00000000	          0.00000000	          0.00000000	          0.82806621	          0.00000000	          0.00000000	          0.00000000	          0.00000000	
          3.82200000	         31.29013417	       1002.73516960	         72.48484431	         -0.21335408	          0.00000000	         -0.04188326	          0.00000000	          0.00000000	          0.00000000	          0.00000000	          0.00000000	          0.00000000	          0.00000000	          0.84309388	          0.00000000	          0.00000000	          0.00000000	          0.00000000	
          3.82300000	         31.80306505	       1002.62163154	         72.88779823	         -0.21285155	          0.00000000	         -0.04191021	          0.00000000	          0.00000000	          0.00000000	          0.00000000	          0.00000000	          0.00000000	          0.00000000	          0.84867115	          0.00000000	          0.00000000	          0.00000000	          0.00000000	
          3.82400000	         32.33817987	       1002.48308719	         73.20577435	         -0.21233030	          0.00000000	         -0.04195908	          0.00000000	          0.00000000	          0.00000000	          0.00000000	          0.00000000	          0.00000000	          0.00000000	          0.86368192	          0.00000000	          0.00000000	          0.00000000	          0.00000000	
          3.82500000	         32.83041175	       1002.25972305	         73.45789153	         -0.21183896	          0.00000000	         -0.04203139	          0.00000000	          0.00000000	          0.00000000	          0.00000000	          0.00000000	          0.00000000	          0.00000000	          0.90254500	          0.00000000	          0.00000000	          0.00000000	          0.00000000	
          3.82600000	         33.24605704	       1001.91731337	         73.67553292	         -0.21140876	          0.00000000	         -0.04210977	          0.00000000	          0.00000000	          0.00000000	          0.00000000	          0.00000000	          0.00000000	          0.00000000	          0.96613361	          0.00000000	          0.00000000	          0.00000000	          0.00000000	
          3.82700000	         33.59640638	       1001.47568838	         73.89189228	         -0.21103773	          0.00000000	         -0.04216637	          0.00000000	          0.00000000	          0.00000000	          0.00000000	          0.00000000	          0.00000000	          0.00000000	          1.03927435	          0.00000000	          0.00000000	          0.00000000	          0.00000000	
